<?xml version="1.0" encoding="utf-8"?>
<!-- Generator: Adobe Illustrator 26.0.0, SVG Export Plug-In . SVG Version: 6.00 Build 0)  -->
<svg version="1.1" id="Layer_1" xmlns="http://www.w3.org/2000/svg" xmlns:xlink="http://www.w3.org/1999/xlink" x="0px" y="0px"
	 viewBox="0 0 30 30" style="enable-background:new 0 0 30 30;" xml:space="preserve">
<style type="text/css">
	.st0{fill:#4995EF;}
	.st1{fill:#FFFFFF;}
</style>
<path class="st0" d="M25,30H5c-2.8,0-5-2.2-5-5V5c0-2.8,2.2-5,5-5h20c2.8,0,5,2.2,5,5v20C30,27.8,27.8,30,25,30z"/>
<path class="st1" d="M27.3,16.4L27.3,16.4c0.2,0,0.3-0.1,0.3-0.3l0-1l-10.7,0l0-1.2l10.7,0c-0.2-0.9-1-1.6-2-1.6l-8.9,0
	c-1.1-2.5-3.6-4.1-6.4-4C6.7,8.5,3.8,11.5,3.8,15c0,3.7,3,6.7,6.7,6.7c2.7,0,5-1.6,6.1-4h0.8c0.3,0,0.5-0.2,0.6-0.5
	c0.1-0.7,0.9-1.1,1.6-0.6c0.2,0.1,0.3,0.4,0.3,0.6c0,0.3,0.3,0.5,0.6,0.5h1.1c0.3,0,0.5-0.2,0.6-0.5c0.1-0.7,0.9-1.1,1.6-0.6
	c0.2,0.1,0.3,0.4,0.3,0.6c0,0.3,0.3,0.5,0.6,0.5l1.3,0c0.2,0,0.3-0.1,0.3-0.3C26.3,16.9,26.7,16.4,27.3,16.4z M8.4,16.9
	c-1.1-1.1-1.1-2.8,0-3.9s2.8-1.1,3.9,0c1.1,1.1,1.1,2.8,0,3.9S9.4,17.9,8.4,16.9z"/>
</svg>
